<svg width="64" height="65" viewBox="0 0 64 65" fill="none" xmlns="http://www.w3.org/2000/svg">
<path d="M33.8999 37.694L36.8813 40.6753L33.9062 46.6253L30.9791 43.5356L33.8999 37.694ZM32.0028 50.4322L29.2154 56.0072L26.2881 52.9173L29.0756 47.3425L32.0028 50.4322ZM9.13425 26.2932L12.025 29.3447L6.47213 32.0005L3.58125 28.949L9.13425 26.2932ZM21.1746 24.9687L15.817 27.5311L12.9261 24.4797L18.1751 21.9692L21.1746 24.9687ZM25.5269 43.5965L21.9615 48.3503L19.1709 45.4047L22.7363 40.6508L25.5269 43.5965ZM25.1709 37.4047L28.7879 32.582L31.645 35.4391L27.9615 40.3503L25.1709 37.4047ZM26.4071 30.2012L21.8218 33.8696L19.0611 30.9555L23.5612 27.3553L26.4071 30.2012ZM18.6874 36.3771L14.0973 40.0492L11.3366 37.1351L15.9268 33.4631L18.6874 36.3771ZM20.4141 13.5516L23.6941 16.8315L26.7839 13.7417C28.0794 12.4462 29.6173 11.4186 31.3099 10.7175C33.0026 10.0164 34.8167 9.65552 36.6488 9.65552C38.4809 9.65552 40.295 10.0164 41.9877 10.7175C43.6803 11.4186 45.2183 12.4462 46.5138 13.7417C46.5565 13.7843 46.5979 13.8278 46.6399 13.871C48.0995 12.8427 49.8135 12.2351 51.5949 12.1145C53.3763 11.9939 55.1566 12.3649 56.7415 13.1871C58.3264 14.0093 59.655 15.251 60.5823 16.7768C61.5096 18.3026 62 20.0537 62 21.8392V51.9657H58V21.8392C58 20.7917 57.7137 19.7641 57.1721 18.8675C56.6305 17.9709 55.8541 17.2394 54.9268 16.752C53.9996 16.2647 52.9568 16.04 51.9111 16.1024C50.8655 16.1647 49.8568 16.5117 48.994 17.1057C50.3778 19.7421 50.8835 22.7516 50.4374 25.6955C49.9913 28.6394 48.6166 31.3638 46.5138 33.4718L43.4241 36.5615L46.4141 39.5516L43.9141 42.0516L17.9141 16.0516L20.4141 13.5516ZM40.8743 33.4546L43.6854 30.6435C45.5335 28.7735 46.5665 26.2482 46.5588 23.6191C46.5511 20.99 45.5033 18.4708 43.6443 16.6117C41.7852 14.7526 39.2661 13.7047 36.637 13.6969C34.0079 13.6891 31.4825 14.722 29.6125 16.5701L26.8014 19.3813L40.8743 33.4546Z" fill="#0099FD"/>
</svg>
