<svg width="50" height="50" viewBox="0 0 50 50" fill="none" xmlns="http://www.w3.org/2000/svg">
<path d="M10.4167 30.2084C10.4167 30.2084 6.25001 34.7292 6.25001 37.5C6.25001 38.6051 6.68899 39.6649 7.4704 40.4463C8.2518 41.2277 9.31161 41.6667 10.4167 41.6667C11.5217 41.6667 12.5816 41.2277 13.363 40.4463C14.1444 39.6649 14.5833 38.6051 14.5833 37.5C14.5833 34.7292 10.4167 30.2084 10.4167 30.2084ZM39.5833 37.5V18.75C40.6884 18.75 41.7482 18.311 42.5296 17.5296C43.311 16.7482 43.75 15.6884 43.75 14.5834C43.75 13.4783 43.311 12.4185 42.5296 11.6371C41.7482 10.8557 40.6884 10.4167 39.5833 10.4167V8.33335C39.5833 7.22829 39.1444 6.16848 38.363 5.38708C37.5816 4.60567 36.5217 4.16669 35.4167 4.16669H31.25C30.1449 4.16669 29.0851 4.60567 28.3037 5.38708C27.5223 6.16848 27.0833 7.22829 27.0833 8.33335V10.4167H10.4167C9.31161 10.4167 8.2518 10.8557 7.4704 11.6371C6.68899 12.4185 6.25001 13.4783 6.25001 14.5834V22.9167C5.69747 22.9167 5.16757 23.1362 4.77687 23.5269C4.38617 23.9176 4.16667 24.4475 4.16667 25C4.16667 25.5526 4.38617 26.0825 4.77687 26.4732C5.16757 26.8639 5.69747 27.0834 6.25001 27.0834H14.5833C15.1359 27.0834 15.6658 26.8639 16.0565 26.4732C16.4472 26.0825 16.6667 25.5526 16.6667 25C16.6667 24.4475 16.4472 23.9176 16.0565 23.5269C15.6658 23.1362 15.1359 22.9167 14.5833 22.9167V18.75H27.0833V37.5H25C23.8949 37.5 22.8351 37.939 22.0537 38.7204C21.2723 39.5018 20.8333 40.5616 20.8333 41.6667V45.8334H45.8333V41.6667C45.8333 40.5616 45.3944 39.5018 44.613 38.7204C43.8316 37.939 42.7717 37.5 41.6667 37.5H39.5833Z" fill="#0099FF"/>
</svg>
