<svg width="64" height="63" viewBox="0 0 64 63" fill="none" xmlns="http://www.w3.org/2000/svg">
<g clip-path="url(#clip0_104_16)">
<path d="M40 11.9689C40 17.0409 38.784 21.6571 36.8 25.1028C35.96 24.4917 35.0029 24.0474 33.9841 23.7955C32.9652 23.5435 31.9048 23.4889 30.864 23.6349C29.744 19.8415 27.224 15.7545 23.512 12.1659C22.8818 11.5562 22.2266 10.9712 21.548 10.4121C24.8063 8.88901 28.3802 8.10046 32 8.10592C34.764 8.10592 37.42 8.55789 39.892 9.38842C39.964 10.2344 40 11.0958 40 11.9689ZM40 31.2835C40 31.5655 39.984 31.8475 39.952 32.1217C44.024 32.0484 48.752 30.7581 53.276 28.2356C54.0551 27.8005 54.8157 27.3353 55.556 26.8411C54.3381 20.8196 50.6992 15.5094 45.436 12.0732C45.2738 12.9038 45.0803 13.7284 44.856 14.5454C43.496 19.4475 41.08 23.6079 38.232 26.4394C39.34 27.7644 40 29.4525 40 31.2835ZM39.452 34.0957C39.0661 35.0469 38.4893 35.915 37.7547 36.6502C37.0202 37.3854 36.1425 37.9732 35.172 38.3797C37.272 41.7404 40.792 45.0432 45.312 47.5619C46.112 48.01 46.92 48.4194 47.732 48.7864C50.1165 46.7923 52.0695 44.3627 53.4788 41.6375C54.888 38.9122 55.7258 35.9448 55.944 32.9059C55.112 33.1879 54.26 33.4467 53.38 33.6746C48.324 34.9842 43.408 35.0499 39.452 34.0996V34.0957ZM32 39.0094C30.2 39.0094 28.536 38.4338 27.2 37.4642C25.224 40.9022 24.016 45.5068 24.016 50.5634C24.016 51.4518 24.056 52.3287 24.124 53.1824C26.6568 54.0312 29.3191 54.4634 32 54.4611C35.76 54.4611 39.32 53.6267 42.492 52.1356C41.8049 51.572 41.1417 50.9817 40.504 50.3664C36.804 46.7893 34.284 42.7139 33.16 38.9321C32.784 38.9823 32.396 39.0094 32 39.0094ZM24 31.2835C24 30.9745 24.02 30.6654 24.056 30.3603C19.976 30.4259 15.236 31.7161 10.696 34.2502C9.91977 34.6829 9.16182 35.1456 8.42403 35.637C9.01666 38.6283 10.2136 41.4776 11.9466 44.0221C13.6796 46.5666 15.9146 48.7565 18.524 50.4668C18.6864 49.6187 18.8839 48.7772 19.116 47.9443C20.476 43.05 22.876 38.8973 25.716 36.0658C24.6009 34.7048 23.996 33.0191 24 31.2835ZM10.612 28.8421C15.68 27.5287 20.604 27.4708 24.564 28.4288C25.348 26.5205 26.896 24.9908 28.844 24.1796C26.748 20.8034 23.22 17.4851 18.68 14.9549C17.905 14.5226 17.1124 14.1206 16.304 13.7497C13.9169 15.7394 11.9601 18.1648 10.5461 20.8867C9.13207 23.6086 8.28857 26.5733 8.06403 29.6108C8.88803 29.325 9.73603 29.07 10.612 28.8421ZM32 35.1464C33.0609 35.1464 34.0783 34.7394 34.8285 34.015C35.5786 33.2906 36 32.308 36 31.2835C36 30.259 35.5786 29.2764 34.8285 28.552C34.0783 27.8276 33.0609 27.4206 32 27.4206C30.9392 27.4206 29.9217 27.8276 29.1716 28.552C28.4215 29.2764 28 30.259 28 31.2835C28 32.308 28.4215 33.2906 29.1716 34.015C29.9217 34.7394 30.9392 35.1464 32 35.1464Z" fill="black"/>
<path d="M32 58.324C24.5739 58.324 17.452 55.4751 12.201 50.404C6.94999 45.3329 4 38.4551 4 31.2835C4 24.1119 6.94999 17.234 12.201 12.163C17.452 7.0919 24.5739 4.24299 32 4.24299C39.4261 4.24299 46.548 7.0919 51.799 12.163C57.05 17.234 60 24.1119 60 31.2835C60 38.4551 57.05 45.3329 51.799 50.404C46.548 55.4751 39.4261 58.324 32 58.324ZM32 62.1869C40.4869 62.1869 48.6263 58.931 54.6274 53.1355C60.6286 47.34 64 39.4796 64 31.2835C64 23.0874 60.6286 15.227 54.6274 9.43147C48.6263 3.63595 40.4869 0.380066 32 0.380066C23.5131 0.380066 15.3737 3.63595 9.37258 9.43147C3.37142 15.227 0 23.0874 0 31.2835C0 39.4796 3.37142 47.34 9.37258 53.1355C15.3737 58.931 23.5131 62.1869 32 62.1869Z" fill="black"/>
</g>
<defs>
<clipPath id="clip0_104_16">
<rect width="64" height="61.8069" fill="white" transform="translate(0 0.380066)"/>
</clipPath>
</defs>
</svg>
