<svg width="64" height="63" viewBox="0 0 64 63" fill="none" xmlns="http://www.w3.org/2000/svg">
<g clip-path="url(#clip0_5_22)">
<path d="M40 11.866C40 16.9381 38.784 21.5543 36.8 25C35.96 24.3889 35.0029 23.9446 33.9841 23.6926C32.9652 23.4407 31.9048 23.3861 30.864 23.5321C29.744 19.7387 27.224 15.6517 23.512 12.063C22.8818 11.4534 22.2266 10.8684 21.548 10.3093C24.8063 8.7862 28.3802 7.99764 32 8.00311C34.764 8.00311 37.42 8.45507 39.892 9.2856C39.964 10.1316 40 10.993 40 11.866ZM40 31.1807C40 31.4627 39.984 31.7447 39.952 32.0189C44.024 31.9455 48.752 30.6553 53.276 28.1328C54.0551 27.6977 54.8157 27.2325 55.556 26.7383C54.3381 20.7167 50.6992 15.4065 45.436 11.9703C45.2738 12.801 45.0803 13.6256 44.856 14.4426C43.496 19.3447 41.08 23.505 38.232 26.3366C39.34 27.6616 40 29.3497 40 31.1807ZM39.452 33.9929C39.0661 34.9441 38.4893 35.8122 37.7547 36.5474C37.0202 37.2826 36.1425 37.8703 35.172 38.2769C37.272 41.6376 40.792 44.9404 45.312 47.4591C46.112 47.9072 46.92 48.3166 47.732 48.6836C50.1165 46.6894 52.0695 44.2599 53.4788 41.5346C54.888 38.8094 55.7258 35.842 55.944 32.8031C55.112 33.0851 54.26 33.3439 53.38 33.5718C48.324 34.8814 43.408 34.947 39.452 33.9968V33.9929ZM32 38.9065C30.2 38.9065 28.536 38.331 27.2 37.3614C25.224 40.7994 24.016 45.404 24.016 50.4606C24.016 51.349 24.056 52.2259 24.124 53.0796C26.6568 53.9284 29.3191 54.3606 32 54.3583C35.76 54.3583 39.32 53.5239 42.492 52.0328C41.8049 51.4692 41.1417 50.8789 40.504 50.2635C36.804 46.6865 34.284 42.6111 33.16 38.8293C32.784 38.8795 32.396 38.9065 32 38.9065ZM24 31.1807C24 30.8716 24.02 30.5626 24.056 30.2574C19.976 30.3231 15.236 31.6133 10.696 34.1474C9.91977 34.5801 9.16182 35.0427 8.42403 35.5342C9.01666 38.5255 10.2136 41.3748 11.9466 43.9193C13.6796 46.4638 15.9146 48.6537 18.524 50.364C18.6864 49.5159 18.8839 48.6744 19.116 47.8415C20.476 42.9472 22.876 38.7945 25.716 35.963C24.6009 34.6019 23.996 32.9162 24 31.1807ZM10.612 28.7393C15.68 27.4259 20.604 27.368 24.564 28.326C25.348 26.4177 26.896 24.888 28.844 24.0768C26.748 20.7006 23.22 17.3823 18.68 14.8521C17.905 14.4198 17.1124 14.0177 16.304 13.6468C13.9169 15.6366 11.9601 18.062 10.5461 20.7838C9.13207 23.5057 8.28857 26.4705 8.06403 29.508C8.88803 29.2222 9.73603 28.9672 10.612 28.7393ZM32 35.0436C33.0609 35.0436 34.0783 34.6366 34.8285 33.9122C35.5786 33.1877 36 32.2052 36 31.1807C36 30.1562 35.5786 29.1736 34.8285 28.4492C34.0783 27.7247 33.0609 27.3178 32 27.3178C30.9392 27.3178 29.9217 27.7247 29.1716 28.4492C28.4215 29.1736 28 30.1562 28 31.1807C28 32.2052 28.4215 33.1877 29.1716 33.9122C29.9217 34.6366 30.9392 35.0436 32 35.0436Z" fill="#33CC00"/>
<path d="M32 58.2212C24.5739 58.2212 17.452 55.3723 12.201 50.3012C6.94999 45.2301 4 38.3523 4 31.1807C4 24.0091 6.94999 17.1312 12.201 12.0602C17.452 6.98908 24.5739 4.14018 32 4.14018C39.4261 4.14018 46.548 6.98908 51.799 12.0602C57.05 17.1312 60 24.0091 60 31.1807C60 38.3523 57.05 45.2301 51.799 50.3012C46.548 55.3723 39.4261 58.2212 32 58.2212ZM32 62.0841C40.4869 62.0841 48.6263 58.8282 54.6274 53.0327C60.6286 47.2372 64 39.3768 64 31.1807C64 22.9846 60.6286 15.1242 54.6274 9.32866C48.6263 3.53314 40.4869 0.277252 32 0.277252C23.5131 0.277252 15.3737 3.53314 9.37258 9.32866C3.37142 15.1242 0 22.9846 0 31.1807C0 39.3768 3.37142 47.2372 9.37258 53.0327C15.3737 58.8282 23.5131 62.0841 32 62.0841Z" fill="#33CC00"/>
</g>
<defs>
<clipPath id="clip0_5_22">
<rect width="64" height="61.8069" fill="white" transform="translate(0 0.277252)"/>
</clipPath>
</defs>
</svg>
